<?xml
  version="1.0" encoding="UTF-8"?>
<svg width="100px" height="100px" viewBox="0 0 100 100" version="1.1" xmlns="http://www.w3.org/2000/svg" xmlns:xlink="http://www.w3.org/1999/xlink">
  <title>画板备份 2</title>
  <g id="画板备份-2" stroke="none" stroke-width="1" fill="none" fill-rule="evenodd">
    <path d="M41.3529412,13 L41.3529412,20.9285714 C41.3529412,26.7670102 46.0934556,31.5 51.9411765,31.5 C57.5230919,31.5 62.0961683,27.1875031 62.5003696,21.7175295 L62.5294118,20.9285714 L62.5294118,13 L83.7058824,13 C86.6297428,13 89,15.3664949 89,18.2857143 L89,81.7142857 C89,84.6335051 86.6297428,87 83.7058824,87 L20.1764706,87 C17.2526101,87 14.8823529,84.6335051 14.8823529,81.7142857 L14.8823529,65.8571429 C6.11077162,65.8571429 -1,58.7576582 -1,50 C-1,41.2423418 6.11077162,34.1428571 14.8823529,34.1428571 L14.8823529,18.2857143 C14.8823529,15.3664949 17.2526101,13 20.1764706,13 L41.3529412,13 Z M67.8199576,21.1227026 L67.7801377,22.1064381 C67.1701891,30.3607466 60.2723837,36.7857143 51.9411765,36.7857143 C43.4828659,36.7857143 36.5688542,30.1842802 36.0857848,21.860299 L36.0588235,20.9285714 L36.0588235,18.2857143 L20.1764706,18.2857143 L20.1764706,39.4285714 L14.8823529,39.4285714 C9.03463206,39.4285714 4.29411765,44.1615612 4.29411765,50 C4.29411765,55.5730552 8.61347066,60.1388728 14.0921405,60.5424325 L14.8823529,60.5714286 L20.1764706,60.5714286 L20.1764706,81.7142857 L83.7058824,81.7142857 L83.7058824,18.2857143 L67.8182353,18.2857143 L67.8199576,21.1227026 Z" id="Combined-Shape" fill="#FFFFFF" fill-rule="nonzero"></path>
    <path d="M68.6372309,17.9001172 L68.5931045,19.0012807 C67.9171912,28.2409008 63.0322118,35.7083333 53.8,35.7083333 C44.4269388,35.7083333 38.775578,28.3188902 38.2402656,19.0012807 L38.2103885,17.9583333 L38.2103885,15 L18.6,15 L18.6,38.6666667 L12.7333333,38.6666667 C6.25319227,38.6666667 1,43.9646305 1,50.5 C1,56.7383073 5.78648304,61.8491436 11.8576609,62.3008761 L12.7333333,62.3333333 L18.6,62.3333333 L18.6,86 L89,86 L89,15 L68.6353224,14.7244794 L68.6372309,17.9001172 Z" id="Path" fill="#FFFFFF" fill-rule="nonzero" opacity="0.500325521"></path>
  </g>
</svg>
