<?xml
  version="1.0" encoding="UTF-8"?>
<svg width="100px" height="100px" viewBox="0 0 100 100" version="1.1" xmlns="http://www.w3.org/2000/svg" xmlns:xlink="http://www.w3.org/1999/xlink">
  <title>形状</title>
  <g id="页面-1" stroke="none" stroke-width="1" fill="none" fill-rule="evenodd">
    <g id="画板" fill="#FFFFFF" fill-rule="nonzero">
      <path d="M91.21875,50 C91.21875,72.764487 72.764487,91.21875 50,91.21875 C27.235513,91.21875 8.78125,72.764487 8.78125,50 C8.78125,27.235513 27.235513,8.78125 50,8.78125 C72.764487,8.78125 91.21875,27.235513 91.21875,50 Z M50,0 C22.3857625,0 0,22.3857625 0,50 C0,77.6142375 22.3857625,100 50,100 C77.6142375,100 100,77.6142375 100,50 C100,22.3857625 77.6142375,0 50,0 Z M50,12.5875 L50,87.4125 C70.6623532,87.4125 87.4125,70.6623532 87.4125,50 C87.4125,29.3376468 70.6623532,12.5875 50,12.5875 Z" id="形状"></path>
    </g>
  </g>
</svg>
